<svg xmlns="http://www.w3.org/2000/svg" width="139pt" height="20pt" viewBox="0 0 139 20"><path d="M0 .055h139v19.89H0zm0 0" fill="#fff"/><path d="M23.566 12.973c0 2.324-.21 3.488-1.402 3.808l-.453.121.75 1.301.238-.035c2.442-.324 3.73-1.895 3.73-4.535v-9.38h-2.866v8.72zm5.5-8.719h2.848v11.453h-2.848zm23.602-.195c-3.613 0-5.855 2.27-5.855 5.921 0 3.66 2.242 5.926 5.855 5.926 3.61 0 5.848-2.265 5.848-5.926 0-3.652-2.239-5.921-5.848-5.921m2.848 5.921c0 2.582-1.145 4.317-2.848 4.317-1.711 0-2.855-1.735-2.855-4.317 0-2.585 1.144-4.32 2.855-4.32 1.703 0 2.848 1.738 2.848 4.32m25.066-5.921c-3.61 0-5.855 2.27-5.855 5.921 0 3.66 2.242 5.926 5.855 5.926 3.61 0 5.856-2.265 5.856-5.926-.004-3.652-2.247-5.921-5.856-5.921M83.43 9.98c0 2.582-1.14 4.317-2.848 4.317-1.707 0-2.855-1.735-2.855-4.317 0-2.585 1.148-4.32 2.855-4.32 1.703 0 2.848 1.738 2.848 4.32m18.797-5.921c-3.61 0-5.86 2.27-5.86 5.921 0 3.66 2.246 5.926 5.86 5.926 3.613 0 5.855-2.265 5.855-5.926.004-3.652-2.238-5.921-5.855-5.921m2.851 5.921c0 2.582-1.148 4.317-2.851 4.317-1.711 0-2.856-1.735-2.856-4.317 0-2.585 1.145-4.32 2.856-4.32 1.703 0 2.851 1.738 2.851 4.32M18.035 4.246s-2.617 3.059-4.187 4.899c-1.832-.68-4.176-1.043-6.907.64-2.593 1.602-4.539 6.406.157 6.426 2.32.012 4.578-.898 7.437-4.293.078-.098.23-.27.309-.36 1.277.93 2.3 2.239 3.191 4.149h2.836V4.247zm-5.265 6.168c-1.684 2.031-3.032 3.395-4.09 4.027-2.434 1.465-3.106-1.484-.075-3.449 1.168-.762 2.95-1.097 4.165-.578m3.183-.168c.8-.95 1.684-2.02 2.082-2.488v4.285a10.704 10.704 0 00-2.082-1.797m76.914 5.461V6.152c.285 0 1.965.078 3.145.266V4.254H86.82v2.164c1.172-.188 2.852-.266 3.137-.266v9.555zM69.719 9.074l-3.188 6.633h-.828L62.551 8.98c.008.07.02.149.008.23-.258 2.106-.543 5.392-.567 6.497h-2.32c.453-2.312 1.433-9.152 1.7-11.453h1.85l3.34 7.012 3.52-7.012h1.664c.29 2.297.766 6.14 1.7 11.453h-3.239c-.043-1.14-.293-4.395-.504-6.406 0-.078.004-.156.016-.227m-27.141 1.551c.11.121.23.305.32.46l-.039-.769V4.254h2.082v11.453l-1.66.004-6.238-6.914a2.749 2.749 0 01-.352-.492l.036.75v6.656h-2.09V4.254h2.09zm67.75 4.02c0-.625-.508-1.137-1.129-1.137a1.14 1.14 0 00-1.133 1.137h.141a.99.99 0 111.98 0zm0 0" fill="#e60012"/><path d="M110.188 14.645a.99.99 0 01-1.981 0h-.14c0 .62.511 1.128 1.132 1.128.621 0 1.13-.507 1.13-1.128zm0 0" fill="#e60012"/><path d="M108.93 14.773h.36c.163 0 .175.07.175.254a.85.85 0 00.023.262h.246v-.035c-.05-.02-.05-.066-.05-.262 0-.25-.047-.289-.137-.336.11-.047.164-.168.164-.312 0-.114-.05-.371-.34-.371h-.652v1.316h.222V14.2h.391c.133 0 .152.11.152.176 0 .129-.054.176-.175.176h-.387v.222zm15.43-10.519h4.93c3.722 0 5.476 2.129 5.476 5.73 0 3.606-1.754 5.735-5.477 5.735h-4.93zm5.027 9.762c1.629 0 2.48-.442 2.48-4.028 0-3.601-.847-4.023-2.48-4.023h-2.192v8.055h2.192zm-7.434-8.938c-.828 0-.875.215-.875.645v8.554c0 .43.047.645.875.645v.797h-4.625v-.797c.836 0 .887-.215.887-.645V5.723c0-.43-.047-.645-.887-.645v-.824h4.625zm0 0" fill="#e60012"/></svg>