<?xml version="1.0" encoding="UTF-8"?>
<svg xmlns="http://www.w3.org/2000/svg" xmlns:xlink="http://www.w3.org/1999/xlink" width="139pt" height="20pt" viewBox="0 0 139 20" version="1.1">
<g id="surface1">
<path style=" stroke:none;fill-rule:nonzero;fill:rgb(100%,100%,100%);fill-opacity:1;" d="M 0 0.0546875 L 139 0.0546875 L 139 19.945312 L 0 19.945312 Z M 0 0.0546875 "/>
<path style=" stroke:none;fill-rule:nonzero;fill:rgb(90.196078%,0%,7.058824%);fill-opacity:1;" d="M 23.566406 12.972656 C 23.566406 15.296875 23.355469 16.460938 22.164062 16.78125 L 21.710938 16.902344 L 22.460938 18.203125 L 22.699219 18.167969 C 25.140625 17.84375 26.429688 16.273438 26.429688 13.632812 L 26.429688 4.253906 L 23.5625 4.253906 L 23.5625 12.972656 Z M 23.566406 12.972656 "/>
<path style=" stroke:none;fill-rule:nonzero;fill:rgb(90.196078%,0%,7.058824%);fill-opacity:1;" d="M 29.066406 4.253906 L 31.914062 4.253906 L 31.914062 15.707031 L 29.066406 15.707031 Z M 29.066406 4.253906 "/>
<path style=" stroke:none;fill-rule:nonzero;fill:rgb(90.196078%,0%,7.058824%);fill-opacity:1;" d="M 52.667969 4.058594 C 49.054688 4.058594 46.8125 6.328125 46.8125 9.980469 C 46.8125 13.640625 49.054688 15.90625 52.667969 15.90625 C 56.277344 15.90625 58.515625 13.640625 58.515625 9.980469 C 58.515625 6.328125 56.277344 4.058594 52.667969 4.058594 M 55.515625 9.980469 C 55.515625 12.5625 54.371094 14.296875 52.667969 14.296875 C 50.957031 14.296875 49.8125 12.5625 49.8125 9.980469 C 49.8125 7.394531 50.957031 5.660156 52.667969 5.660156 C 54.371094 5.660156 55.515625 7.398438 55.515625 9.980469 "/>
<path style=" stroke:none;fill-rule:nonzero;fill:rgb(90.196078%,0%,7.058824%);fill-opacity:1;" d="M 80.582031 4.058594 C 76.972656 4.058594 74.726562 6.328125 74.726562 9.980469 C 74.726562 13.640625 76.96875 15.90625 80.582031 15.90625 C 84.191406 15.90625 86.4375 13.640625 86.4375 9.980469 C 86.433594 6.328125 84.191406 4.058594 80.582031 4.058594 M 83.429688 9.980469 C 83.429688 12.5625 82.289062 14.296875 80.582031 14.296875 C 78.875 14.296875 77.726562 12.5625 77.726562 9.980469 C 77.726562 7.394531 78.875 5.660156 80.582031 5.660156 C 82.285156 5.660156 83.429688 7.398438 83.429688 9.980469 "/>
<path style=" stroke:none;fill-rule:nonzero;fill:rgb(90.196078%,0%,7.058824%);fill-opacity:1;" d="M 102.226562 4.058594 C 98.617188 4.058594 96.367188 6.328125 96.367188 9.980469 C 96.367188 13.640625 98.613281 15.90625 102.226562 15.90625 C 105.839844 15.90625 108.082031 13.640625 108.082031 9.980469 C 108.085938 6.328125 105.84375 4.058594 102.226562 4.058594 M 105.078125 9.980469 C 105.078125 12.5625 103.929688 14.296875 102.226562 14.296875 C 100.515625 14.296875 99.371094 12.5625 99.371094 9.980469 C 99.371094 7.394531 100.515625 5.660156 102.226562 5.660156 C 103.929688 5.660156 105.078125 7.398438 105.078125 9.980469 "/>
<path style=" stroke:none;fill-rule:nonzero;fill:rgb(90.196078%,0%,7.058824%);fill-opacity:1;" d="M 18.035156 4.246094 C 18.035156 4.246094 15.417969 7.304688 13.847656 9.144531 C 12.015625 8.464844 9.671875 8.101562 6.941406 9.785156 C 4.347656 11.386719 2.402344 16.191406 7.097656 16.210938 C 9.417969 16.222656 11.675781 15.3125 14.535156 11.917969 C 14.613281 11.820312 14.765625 11.648438 14.84375 11.558594 C 16.121094 12.488281 17.144531 13.796875 18.035156 15.707031 L 20.871094 15.707031 L 20.871094 4.246094 Z M 12.769531 10.414062 C 11.085938 12.445312 9.738281 13.808594 8.679688 14.441406 C 6.246094 15.90625 5.574219 12.957031 8.605469 10.992188 C 9.773438 10.230469 11.554688 9.894531 12.769531 10.414062 M 15.953125 10.246094 C 16.753906 9.296875 17.636719 8.226562 18.035156 7.757812 L 18.035156 12.042969 C 17.460938 11.398438 16.757812 10.777344 15.953125 10.246094 "/>
<path style=" stroke:none;fill-rule:nonzero;fill:rgb(90.196078%,0%,7.058824%);fill-opacity:1;" d="M 92.867188 15.707031 L 92.867188 6.152344 C 93.152344 6.152344 94.832031 6.230469 96.011719 6.417969 L 96.011719 4.253906 L 86.820312 4.253906 L 86.820312 6.417969 C 87.992188 6.230469 89.671875 6.152344 89.957031 6.152344 L 89.957031 15.707031 Z M 92.867188 15.707031 "/>
<path style=" stroke:none;fill-rule:nonzero;fill:rgb(90.196078%,0%,7.058824%);fill-opacity:1;" d="M 69.71875 9.074219 L 66.53125 15.707031 L 65.703125 15.707031 L 62.550781 8.980469 C 62.558594 9.050781 62.570312 9.128906 62.558594 9.210938 C 62.300781 11.316406 62.015625 14.601562 61.992188 15.707031 L 59.671875 15.707031 C 60.125 13.394531 61.105469 6.554688 61.371094 4.253906 L 63.222656 4.253906 L 66.5625 11.265625 L 70.082031 4.253906 L 71.746094 4.253906 C 72.035156 6.550781 72.511719 10.394531 73.445312 15.707031 L 70.207031 15.707031 C 70.164062 14.566406 69.914062 11.3125 69.703125 9.300781 C 69.703125 9.222656 69.707031 9.144531 69.71875 9.074219 "/>
<path style=" stroke:none;fill-rule:nonzero;fill:rgb(90.196078%,0%,7.058824%);fill-opacity:1;" d="M 42.578125 10.625 C 42.6875 10.746094 42.808594 10.929688 42.898438 11.085938 L 42.859375 10.316406 L 42.859375 4.253906 L 44.941406 4.253906 L 44.941406 15.707031 L 43.28125 15.710938 L 37.042969 8.796875 C 36.917969 8.671875 36.78125 8.457031 36.691406 8.304688 L 36.726562 9.054688 L 36.726562 15.710938 L 34.636719 15.710938 L 34.636719 4.253906 L 36.726562 4.253906 Z M 42.578125 10.625 "/>
<path style=" stroke:none;fill-rule:nonzero;fill:rgb(90.196078%,0%,7.058824%);fill-opacity:1;" d="M 110.328125 14.644531 C 110.328125 14.019531 109.820312 13.507812 109.199219 13.507812 C 108.578125 13.507812 108.066406 14.019531 108.066406 14.644531 L 108.207031 14.644531 C 108.207031 14.097656 108.648438 13.652344 109.195312 13.652344 C 109.742188 13.652344 110.1875 14.097656 110.1875 14.644531 Z M 110.328125 14.644531 "/>
<path style=" stroke:none;fill-rule:nonzero;fill:rgb(90.196078%,0%,7.058824%);fill-opacity:1;" d="M 110.1875 14.644531 C 110.1875 15.191406 109.742188 15.632812 109.195312 15.632812 C 108.648438 15.632812 108.207031 15.191406 108.207031 14.644531 L 108.066406 14.644531 C 108.066406 15.265625 108.578125 15.773438 109.199219 15.773438 C 109.820312 15.773438 110.328125 15.265625 110.328125 14.644531 Z M 110.1875 14.644531 "/>
<path style=" stroke:none;fill-rule:nonzero;fill:rgb(90.196078%,0%,7.058824%);fill-opacity:1;" d="M 108.929688 14.773438 L 109.289062 14.773438 C 109.453125 14.773438 109.464844 14.84375 109.464844 15.027344 C 109.464844 15.160156 109.46875 15.230469 109.488281 15.289062 L 109.734375 15.289062 L 109.734375 15.253906 C 109.683594 15.234375 109.683594 15.1875 109.683594 14.992188 C 109.683594 14.742188 109.636719 14.703125 109.546875 14.65625 C 109.65625 14.609375 109.710938 14.488281 109.710938 14.34375 C 109.710938 14.230469 109.660156 13.972656 109.371094 13.972656 L 108.71875 13.972656 L 108.71875 15.289062 L 108.941406 15.289062 L 108.941406 14.199219 L 109.332031 14.199219 C 109.464844 14.199219 109.484375 14.308594 109.484375 14.375 C 109.484375 14.503906 109.429688 14.550781 109.308594 14.550781 L 108.921875 14.550781 L 108.921875 14.773438 Z M 108.929688 14.773438 "/>
<path style=" stroke:none;fill-rule:nonzero;fill:rgb(90.196078%,0%,7.058824%);fill-opacity:1;" d="M 124.359375 4.253906 L 129.289062 4.253906 C 133.011719 4.253906 134.765625 6.382812 134.765625 9.984375 C 134.765625 13.589844 133.011719 15.71875 129.289062 15.71875 L 124.359375 15.71875 Z M 129.386719 14.015625 C 131.015625 14.015625 131.867188 13.574219 131.867188 9.988281 C 131.867188 6.386719 131.019531 5.964844 129.386719 5.964844 L 127.195312 5.964844 L 127.195312 14.019531 L 129.386719 14.019531 Z M 129.386719 14.015625 "/>
<path style=" stroke:none;fill-rule:nonzero;fill:rgb(90.196078%,0%,7.058824%);fill-opacity:1;" d="M 121.953125 5.078125 C 121.125 5.078125 121.078125 5.292969 121.078125 5.722656 L 121.078125 14.277344 C 121.078125 14.707031 121.125 14.921875 121.953125 14.921875 L 121.953125 15.71875 L 117.328125 15.71875 L 117.328125 14.921875 C 118.164062 14.921875 118.214844 14.707031 118.214844 14.277344 L 118.214844 5.722656 C 118.214844 5.292969 118.167969 5.078125 117.328125 5.078125 L 117.328125 4.253906 L 121.953125 4.253906 Z M 121.953125 5.078125 "/>
</g>
</svg>
